<svg xmlns="http://www.w3.org/2000/svg" viewBox="0 0 1280 640" width="1280" height="640"><defs><linearGradient id="bg" x1="0" y1="0" x2="1280" y2="640" gradientUnits="userSpaceOnUse"><stop offset="0" stop-color="#05070d"/><stop offset="1" stop-color="#0f1729"/></linearGradient></defs><rect width="1280" height="640" fill="url(#bg)"/><circle cx="1238" cy="54" r="1.8" fill="#f8fafc" opacity="0.061"/><circle cx="97" cy="410" r="0.8" fill="#f8fafc" opacity="0.025"/><circle cx="117" cy="388" r="0.7" fill="#f8fafc" opacity="0.061"/><circle cx="713" cy="625" r="1.5" fill="#f8fafc" opacity="0.056"/><circle cx="14" cy="452" r="1.5" fill="#f8fafc" opacity="0.030"/><circle cx="1177" cy="519" r="0.9" fill="#f8fafc" opacity="0.045"/><circle cx="890" cy="35" r="0.9" fill="#f8fafc" opacity="0.057"/><circle cx="14" cy="366" r="0.7" fill="#f8fafc" opacity="0.030"/><circle cx="1230" cy="61" r="0.8" fill="#f8fafc" opacity="0.080"/><circle cx="688" cy="264" r="0.7" fill="#f8fafc" opacity="0.026"/><circle cx="197" cy="265" r="1.9" fill="#f8fafc" opacity="0.041"/><circle cx="721" cy="521" r="1.9" fill="#f8fafc" opacity="0.031"/><circle cx="95" cy="516" r="1.3" fill="#f8fafc" opacity="0.037"/><circle cx="338" cy="596" r="1.1" fill="#f8fafc" opacity="0.034"/><circle cx="783" cy="318" r="1.5" fill="#f8fafc" opacity="0.042"/><circle cx="1271" cy="213" r="1.9" fill="#f8fafc" opacity="0.073"/><circle cx="292" cy="428" r="1.4" fill="#f8fafc" opacity="0.052"/><circle cx="499" cy="473" r="1.2" fill="#f8fafc" opacity="0.071"/><circle cx="696" cy="610" r="1.2" fill="#f8fafc" opacity="0.048"/><circle cx="406" cy="325" r="1.2" fill="#f8fafc" opacity="0.056"/><circle cx="337" cy="261" r="1.3" fill="#f8fafc" opacity="0.032"/><circle cx="278" cy="328" r="1.9" fill="#f8fafc" opacity="0.029"/><circle cx="1124" cy="493" r="1.0" fill="#f8fafc" opacity="0.077"/><circle cx="530" cy="286" r="1.4" fill="#f8fafc" opacity="0.074"/><circle cx="764" cy="489" r="1.8" fill="#f8fafc" opacity="0.074"/><circle cx="351" cy="158" r="2.0" fill="#f8fafc" opacity="0.078"/><g transform="translate(980 320) scale(9)" opacity="0.10">
    <defs>
      <linearGradient id="tile-big" x1="0" y1="0" x2="64" y2="64" gradientUnits="userSpaceOnUse">
        <stop offset="0" stop-color="#38bdf8"/><stop offset="1" stop-color="#818cf8"/>
      </linearGradient>
      <g id="arm-big" fill="none" stroke="#f8fafc" stroke-width="2.2" stroke-linecap="round" stroke-linejoin="round">
        <path d="M32 32 V10"/>
        <path d="M32 21 l4.6 -3.4 M32 21 l-4.6 -3.4"/>
        <path d="M32 15 l3.2 -2.4 M32 15 l-3.2 -2.4"/>
      </g>
    </defs>
    
    <g opacity="0.96"><use href="#arm-big" transform="rotate(0 32 32)"/><use href="#arm-big" transform="rotate(60 32 32)"/><use href="#arm-big" transform="rotate(120 32 32)"/><use href="#arm-big" transform="rotate(180 32 32)"/><use href="#arm-big" transform="rotate(240 32 32)"/><use href="#arm-big" transform="rotate(300 32 32)"/></g>
    <circle cx="32" cy="32" r="3.1" fill="#f8fafc"/></g><g transform="translate(120 232)"><g transform="scale(1.7)">
    <defs>
      <linearGradient id="tile-sp" x1="0" y1="0" x2="64" y2="64" gradientUnits="userSpaceOnUse">
        <stop offset="0" stop-color="#38bdf8"/><stop offset="1" stop-color="#818cf8"/>
      </linearGradient>
      <g id="arm-sp" fill="none" stroke="#f8fafc" stroke-width="2.2" stroke-linecap="round" stroke-linejoin="round">
        <path d="M32 32 V10"/>
        <path d="M32 21 l4.6 -3.4 M32 21 l-4.6 -3.4"/>
        <path d="M32 15 l3.2 -2.4 M32 15 l-3.2 -2.4"/>
      </g>
    </defs>
    <rect x="0" y="0" width="64" height="64" rx="15" fill="url(#tile-sp)"/>
    <g opacity="0.96"><use href="#arm-sp" transform="rotate(0 32 32)"/><use href="#arm-sp" transform="rotate(60 32 32)"/><use href="#arm-sp" transform="rotate(120 32 32)"/><use href="#arm-sp" transform="rotate(180 32 32)"/><use href="#arm-sp" transform="rotate(240 32 32)"/><use href="#arm-sp" transform="rotate(300 32 32)"/></g>
    <circle cx="32" cy="32" r="3.1" fill="#f8fafc"/></g></g><text x="240" y="300" font-family="'DejaVu Sans Mono','SFMono-Regular',ui-monospace,monospace" font-size="60" font-weight="700" letter-spacing="-1" fill="#f8fafc"><tspan fill="#38bdf8">SnowOps</tspan> Labs</text><text x="242" y="352" font-family="'DejaVu Sans Mono','SFMono-Regular',ui-monospace,monospace" font-size="26" font-weight="400" fill="#94a3b8">A Kubernetes platform-engineering simulator</text><text x="242" y="404" font-family="'DejaVu Sans Mono','SFMono-Regular',ui-monospace,monospace" font-size="21" font-weight="400" fill="#64748b">Stand it up · break it on purpose · fix it · get graded</text></svg>
